<svg width="64" height="64" viewBox="0 0 64 64" fill="none" xmlns="http://www.w3.org/2000/svg">
<g clip-path="url(#clip0_259_547)">
<path d="M63 1H1V63H63V1Z" fill="#FFF0E5" stroke="#FFF0E5" stroke-width="2"/>
<path d="M21.104 37.0841C17.9988 37.0841 15.5384 36.2242 13.7231 34.5044C11.9077 32.7607 11 30.2765 11 27.0518V21.0324C11 17.8077 11.9077 15.3354 13.7231 13.6156C15.5384 11.8719 17.9988 11 21.104 11C24.1854 11 26.5621 11.848 28.2341 13.5439C29.9301 15.216 30.7781 17.521 30.7781 20.4591V20.6741H26.1202V20.3158C26.1202 18.8348 25.7022 17.6166 24.8661 16.6611C24.054 15.7057 22.8 15.2279 21.104 15.2279C19.432 15.2279 18.1182 15.7415 17.1627 16.7686C16.2073 17.7957 15.7295 19.1931 15.7295 20.9607V27.1234C15.7295 28.8671 16.2073 30.2645 17.1627 31.3155C18.1182 32.3426 19.432 32.8562 21.104 32.8562C22.8 32.8562 24.054 32.3785 24.8661 31.423C25.7022 30.4437 26.1202 29.2254 26.1202 27.7684V27.3089H30.7781V27.625C30.7781 30.5631 29.9301 32.8801 28.2341 34.576C26.5621 36.2481 24.1854 37.0841 21.104 37.0841Z" fill="#070E2A"/>
<path d="M26.4282 52.3898V27.309H35.2066L39.542 49.1652H40.1869L44.5223 27.309H53.3006V52.3898H48.7144V30.7845H48.0695L43.7699 52.3898H35.959L31.6594 30.7845H31.0145V52.3898H26.4282Z" fill="#070E2A"/>
</g>
<defs>
<clipPath id="clip0_259_547">
<rect width="64" height="64" fill="white"/>
</clipPath>
</defs>
</svg>
