<svg width="46" height="46" viewBox="0 0 46 46" fill="none" xmlns="http://www.w3.org/2000/svg">
<rect x="1.5957" y="1" width="43.0107" height="43.0107" rx="5" fill="white" stroke="#070E2B" stroke-width="2"/>
<g clip-path="url(#clip0_354_49)">
<path d="M13.3828 10.8691L15.1958 31.4301L23.3568 34.1417L31.5178 31.4301L33.3308 10.8691H13.3828ZM29.6477 15.025L29.3983 17.4821L23.4087 20.0431L23.3931 20.0483H29.1853L28.5204 27.6638L23.4191 29.1547L18.2867 27.6379L17.9542 23.7989H20.4945L20.6607 25.7885L23.3931 26.4794L26.2347 25.6794L26.4269 22.4795L17.788 22.4535V22.4483L17.7776 22.4535L17.5906 20.0483L23.4139 17.6223L23.7516 17.4821H17.3672L17.0659 15.025H29.6477Z" fill="#070E2B"/>
</g>
<defs>
<clipPath id="clip0_354_49">
<rect width="19.9479" height="26.5973" fill="white" transform="translate(13.3828 9.20679)"/>
</clipPath>
</defs>
</svg>
