<svg width="46" height="46" viewBox="0 0 46 46" fill="none" xmlns="http://www.w3.org/2000/svg">
<rect x="1.19141" y="1" width="43.0107" height="43.0107" rx="5" fill="white" stroke="#070E2B" stroke-width="2"/>
<g clip-path="url(#clip0_354_57)">
<path d="M13.7061 14.1834C13.7061 11.4353 15.9346 9.20679 18.6827 9.20679H27.2229C29.9709 9.20679 32.1995 11.4353 32.1995 14.1834C32.1995 15.9236 31.306 17.4561 29.9501 18.3444C31.306 19.2327 32.1995 20.7652 32.1995 22.5054C32.1995 25.2534 29.9709 27.482 27.2229 27.482H27.1138C25.8255 27.482 24.6514 26.9937 23.7683 26.1885V30.7755C23.7683 33.5599 21.4826 35.804 18.7086 35.804C15.9658 35.804 13.7061 33.5807 13.7061 30.8274C13.7061 29.0872 14.5996 27.5547 15.9502 26.6664C14.5996 25.7781 13.7061 24.2457 13.7061 22.5054C13.7061 20.7652 14.5996 19.2327 15.9502 18.3444C14.5996 17.4561 13.7061 15.9236 13.7061 14.1834ZM22.1372 19.16H18.6827C16.8333 19.16 15.3372 20.6561 15.3372 22.5054C15.3372 24.3444 16.8229 25.8405 18.6619 25.8508C18.6671 25.8508 18.6775 25.8508 18.6827 25.8508H22.1372V19.16ZM23.7683 22.5054C23.7683 24.3548 25.2644 25.8508 27.1138 25.8508H27.2229C29.067 25.8508 30.5683 24.3548 30.5683 22.5054C30.5683 20.6561 29.067 19.16 27.2229 19.16H27.1138C25.2644 19.16 23.7683 20.6561 23.7683 22.5054ZM18.6827 27.482C18.6775 27.482 18.6671 27.482 18.6619 27.482C16.8229 27.4924 15.3372 28.9885 15.3372 30.8274C15.3372 32.6716 16.8541 34.1729 18.7086 34.1729C20.5943 34.1729 22.1372 32.6456 22.1372 30.7755V27.482H18.6827ZM18.6827 10.8379C16.8333 10.8379 15.3372 12.334 15.3372 14.1834C15.3372 16.0327 16.8333 17.5288 18.6827 17.5288H22.1372V10.8379H18.6827ZM23.7683 17.5288H27.2229C29.067 17.5288 30.5683 16.0327 30.5683 14.1834C30.5683 12.334 29.067 10.8379 27.2229 10.8379H23.7683V17.5288Z" fill="#070E2B"/>
</g>
<defs>
<clipPath id="clip0_354_57">
<rect width="19.9479" height="26.5973" fill="white" transform="translate(12.9785 9.20679)"/>
</clipPath>
</defs>
</svg>
