<svg width="46" height="46" viewBox="0 0 46 46" fill="none" xmlns="http://www.w3.org/2000/svg">
<rect x="1.98926" y="1" width="43.0107" height="43.0107" rx="5" fill="white" stroke="#070E2B" stroke-width="2"/>
<g clip-path="url(#clip0_354_53)">
<path d="M20.8862 26.2821C20.8862 27.3678 20.32 29.1444 18.9797 29.1444C17.6395 29.1444 17.0733 27.3678 17.0733 26.2821C17.0733 25.1964 17.6395 23.4197 18.9797 23.4197C20.32 23.4197 20.8862 25.1964 20.8862 26.2821ZM36.1537 23.6587C36.1537 25.3158 35.9874 27.0717 35.2446 28.5937C33.2758 32.5729 27.8628 32.4794 23.9875 32.4794C20.0499 32.4794 14.3148 32.6197 12.2681 28.5937C11.5097 27.0873 11.2188 25.3158 11.2188 23.6587C11.2188 21.4821 11.9408 19.425 13.3746 17.7574C13.1045 16.9367 12.9746 16.0743 12.9746 15.2224C12.9746 14.1055 13.2291 13.5445 13.733 12.5315C16.0863 12.5315 17.5927 12.999 19.3849 14.4016C20.8914 14.0432 22.4395 13.8821 23.9927 13.8821C25.3953 13.8821 26.8083 14.0328 28.1693 14.3601C29.9355 12.973 31.442 12.5315 33.7693 12.5315C34.2784 13.5445 34.5277 14.1055 34.5277 15.2224C34.5277 16.0743 34.3926 16.9211 34.1277 17.7263C35.5563 19.4094 36.1537 21.4821 36.1537 23.6587ZM32.8134 26.2821C32.8134 24.0016 31.4264 21.9912 28.9953 21.9912C28.0135 21.9912 27.0732 22.1678 26.0862 22.3029C25.3122 22.4223 24.5382 22.4691 23.7434 22.4691C22.9537 22.4691 22.1797 22.4223 21.4005 22.3029C20.4291 22.1678 19.4784 21.9912 18.4914 21.9912C16.0603 21.9912 14.6733 24.0016 14.6733 26.2821C14.6733 30.8431 18.8499 31.5444 22.4862 31.5444H24.9901C28.642 31.5444 32.8134 30.8483 32.8134 26.2821ZM28.5225 23.4197C27.1823 23.4197 26.6161 25.1964 26.6161 26.2821C26.6161 27.3678 27.1823 29.1444 28.5225 29.1444C29.8628 29.1444 30.429 27.3678 30.429 26.2821C30.429 25.1964 29.8628 23.4197 28.5225 23.4197Z" fill="#070E2B"/>
</g>
<defs>
<clipPath id="clip0_354_53">
<rect width="24.9349" height="26.5973" fill="white" transform="translate(11.2188 9.20679)"/>
</clipPath>
</defs>
</svg>
