<svg width="46" height="46" viewBox="0 0 46 46" fill="none" xmlns="http://www.w3.org/2000/svg">
<rect x="1" y="1" width="43.0107" height="43.0107" rx="5" fill="white" stroke="#070E2B" stroke-width="2"/>
<g clip-path="url(#clip0_354_41)">
<path d="M12.7871 12.6593V32.3515H32.2236V12.6593H12.7871ZM23.3644 28.0175C23.3644 29.9339 22.2537 30.8086 20.6354 30.8086C19.1734 30.8086 18.3274 30.0438 17.8935 29.1164L19.3816 28.2065C19.668 28.7207 19.9283 29.1559 20.5574 29.1559C21.1561 29.1559 21.5379 28.9185 21.5379 27.9911V21.701H23.3644V28.0175ZM27.6855 30.8086C25.9891 30.8086 24.8915 29.9911 24.3579 28.9186L25.846 28.0482C26.2364 28.6944 26.7484 29.1735 27.6465 29.1735C28.4013 29.1735 28.8873 28.7911 28.8873 28.2592C28.8873 27.6262 28.3927 27.4021 27.5553 27.0285L27.0998 26.8306C25.7809 26.2636 24.9089 25.5471 24.9089 24.0395C24.9089 22.6505 25.9544 21.5955 27.5814 21.5955C28.7441 21.5955 29.5771 22.0043 30.1758 23.0768L28.7528 23.9999C28.4404 23.4329 28.102 23.2087 27.577 23.2087C27.0434 23.2087 26.705 23.5515 26.705 23.9999C26.705 24.5537 27.0434 24.7779 27.8287 25.1252L28.2842 25.323C29.8374 25.9955 30.7094 26.6856 30.7094 28.2328C30.7094 29.8944 29.4166 30.8086 27.6855 30.8086Z" fill="#070E2B"/>
</g>
<defs>
<clipPath id="clip0_354_41">
<rect width="19.4365" height="22.5054" fill="white" transform="translate(12.7871 11.2527)"/>
</clipPath>
</defs>
</svg>
