<svg width="33" height="32" viewBox="0 0 33 32" fill="none" xmlns="http://www.w3.org/2000/svg">
<rect x="0.5" y="0.5" width="32" height="31" rx="3.5" fill="white"/>
<rect x="0.5" y="0.5" width="32" height="31" rx="3.5" stroke="#070E2B"/>
<path d="M16.495 24.22C15.483 24.22 14.5737 23.9853 13.767 23.516C12.975 23.0467 12.3443 22.416 11.875 21.624C11.4057 20.832 11.171 19.952 11.171 18.984C11.171 17.6347 11.6403 16.2927 12.579 14.958L17.067 8.732H19.465L14.867 15.002L14.119 15.398C14.295 15.09 14.5077 14.8333 14.757 14.628C15.0063 14.408 15.3143 14.2393 15.681 14.122C16.0477 14.0047 16.4803 13.946 16.979 13.946C17.8737 13.946 18.6803 14.1587 19.399 14.584C20.1323 15.0093 20.719 15.596 21.159 16.344C21.6137 17.0773 21.841 17.9353 21.841 18.918C21.841 19.886 21.599 20.7733 21.115 21.58C20.6457 22.3867 20.0003 23.032 19.179 23.516C18.3723 23.9853 17.4777 24.22 16.495 24.22ZM16.495 22.284C17.111 22.284 17.661 22.1373 18.145 21.844C18.6437 21.536 19.0323 21.1327 19.311 20.634C19.6043 20.1207 19.751 19.5487 19.751 18.918C19.751 18.2873 19.6043 17.7227 19.311 17.224C19.0323 16.7107 18.6437 16.3073 18.145 16.014C17.661 15.7207 17.111 15.574 16.495 15.574C15.879 15.574 15.3217 15.7207 14.823 16.014C14.339 16.3073 13.9503 16.7107 13.657 17.224C13.3783 17.7227 13.239 18.2873 13.239 18.918C13.239 19.5487 13.3783 20.1207 13.657 20.634C13.9503 21.1473 14.339 21.5507 14.823 21.844C15.3217 22.1373 15.879 22.284 16.495 22.284Z" fill="#070E2B"/>
</svg>
