<svg width="33" height="32" viewBox="0 0 33 32" fill="none" xmlns="http://www.w3.org/2000/svg">
<rect x="0.5" y="0.5" width="32" height="31" rx="3.5" fill="white"/>
<rect x="0.5" y="0.5" width="32" height="31" rx="3.5" stroke="#070E2B"/>
<path d="M16.0048 24.22C14.9635 24.22 14.0322 24.0367 13.2108 23.67C12.4042 23.2887 11.7222 22.7387 11.1648 22.02L12.5728 20.612C12.9102 21.1253 13.3722 21.536 13.9588 21.844C14.5602 22.1373 15.2275 22.284 15.9608 22.284C16.6502 22.284 17.2515 22.152 17.7648 21.888C18.2928 21.624 18.7035 21.2573 18.9968 20.788C19.3048 20.304 19.4588 19.732 19.4588 19.072C19.4588 18.3973 19.3122 17.8253 19.0188 17.356C18.7255 16.8867 18.3295 16.5347 17.8308 16.3C17.3468 16.0507 16.8115 15.926 16.2248 15.926C15.6235 15.926 15.0735 15.9993 14.5748 16.146C14.0908 16.2927 13.6288 16.542 13.1888 16.894L13.2108 15.574C13.4602 15.266 13.7462 15.0167 14.0688 14.826C14.3915 14.6353 14.7582 14.4887 15.1688 14.386C15.5795 14.2833 16.0562 14.232 16.5988 14.232C17.6548 14.232 18.5495 14.452 19.2828 14.892C20.0162 15.332 20.5735 15.926 20.9548 16.674C21.3508 17.422 21.5488 18.258 21.5488 19.182C21.5488 20.15 21.3068 21.0153 20.8228 21.778C20.3535 22.5407 19.7008 23.142 18.8648 23.582C18.0288 24.0073 17.0755 24.22 16.0048 24.22ZM13.1888 16.894L12.0668 15.772L12.7488 8.732H14.6408L13.8708 15.97L13.1888 16.894ZM13.1668 10.58L12.7488 8.732H20.7788V10.58H13.1668Z" fill="#070E2B"/>
</svg>
