<svg width="33" height="32" viewBox="0 0 33 32" fill="none" xmlns="http://www.w3.org/2000/svg">
<rect x="0.5" y="0.5" width="32" height="31" rx="3.5" fill="white"/>
<rect x="0.5" y="0.5" width="32" height="31" rx="3.5" stroke="#070E2B"/>
<path d="M16.0151 24.22C15.0177 24.22 14.1084 24.0367 13.2871 23.67C12.4804 23.2887 11.7984 22.7387 11.2411 22.02L12.6491 20.612C12.9864 21.1253 13.4484 21.536 14.0351 21.844C14.6217 22.1373 15.2744 22.284 15.9931 22.284C16.6677 22.284 17.2471 22.1593 17.7311 21.91C18.2297 21.646 18.6184 21.2793 18.8971 20.81C19.1904 20.3407 19.3371 19.798 19.3371 19.182C19.3371 18.5513 19.1904 18.0087 18.8971 17.554C18.6184 17.0847 18.2224 16.7253 17.7091 16.476C17.1957 16.2267 16.5871 16.102 15.8831 16.102C15.6191 16.102 15.3551 16.124 15.0911 16.168C14.8271 16.1973 14.5704 16.2487 14.3211 16.322L15.2011 15.134C15.4797 15.002 15.7804 14.8993 16.1031 14.826C16.4257 14.7527 16.7484 14.716 17.0711 14.716C17.8924 14.716 18.6257 14.9067 19.2711 15.288C19.9311 15.6693 20.4517 16.2047 20.8331 16.894C21.2291 17.5833 21.4271 18.3827 21.4271 19.292C21.4271 20.26 21.1924 21.118 20.7231 21.866C20.2684 22.5993 19.6377 23.1787 18.8311 23.604C18.0244 24.0147 17.0857 24.22 16.0151 24.22ZM14.3211 16.322V15.068L18.7871 9.986L21.2511 9.964L16.6531 15.178L14.3211 16.322ZM11.9671 10.58V8.732H21.2511V9.964L19.4471 10.58H11.9671Z" fill="#070E2B"/>
</svg>
