<svg width="33" height="32" viewBox="0 0 33 32" fill="none" xmlns="http://www.w3.org/2000/svg">
<rect x="0.5" y="0.5" width="32" height="31" rx="3.5" fill="white"/>
<rect x="0.5" y="0.5" width="32" height="31" rx="3.5" stroke="#070E2B"/>
<path d="M11.2748 22.746L16.9068 16.806C17.4788 16.2193 17.9262 15.7133 18.2488 15.288C18.5715 14.848 18.7988 14.4447 18.9308 14.078C19.0775 13.7113 19.1508 13.33 19.1508 12.934C19.1508 12.1567 18.9015 11.548 18.4028 11.108C17.9042 10.668 17.2588 10.448 16.4668 10.448C15.6895 10.448 15.0075 10.6387 14.4208 11.02C13.8342 11.3867 13.3135 11.9587 12.8588 12.736L11.4068 11.526C12.0082 10.5287 12.7342 9.78067 13.5848 9.282C14.4355 8.76867 15.4182 8.512 16.5328 8.512C17.4715 8.512 18.2855 8.69533 18.9748 9.062C19.6788 9.42867 20.2215 9.942 20.6028 10.602C20.9842 11.262 21.1748 12.032 21.1748 12.912C21.1748 13.5427 21.0942 14.1073 20.9328 14.606C20.7862 15.1047 20.5148 15.618 20.1188 16.146C19.7375 16.6593 19.2022 17.2753 18.5128 17.994L13.9588 22.68L11.2748 22.746ZM11.2748 24V22.746L13.0348 22.152H21.5268V24H11.2748Z" fill="#070E2B"/>
</svg>
