<svg width="33" height="32" viewBox="0 0 33 32" fill="none" xmlns="http://www.w3.org/2000/svg">
<rect width="33" height="32" fill="white"/>
<rect x="0.5" y="0.5" width="32" height="31" rx="3.5" stroke="#070E2B"/>
<path d="M16.5021 24.22C15.4901 24.22 14.5955 24.0293 13.8181 23.648C13.0555 23.2667 12.4615 22.7387 12.0361 22.064C11.6108 21.3893 11.3981 20.6267 11.3981 19.776C11.3981 19.0867 11.5301 18.456 11.7941 17.884C12.0581 17.312 12.4468 16.828 12.9601 16.432C13.4735 16.0213 14.0748 15.728 14.7641 15.552L14.8301 16.146C14.2435 15.9847 13.7448 15.728 13.3341 15.376C12.9235 15.0093 12.6081 14.584 12.3881 14.1C12.1828 13.6013 12.0801 13.0733 12.0801 12.516C12.0801 11.724 12.2708 11.0273 12.6521 10.426C13.0335 9.82467 13.5541 9.35533 14.2141 9.018C14.8888 8.666 15.6515 8.49 16.5021 8.49C17.3675 8.49 18.1301 8.666 18.7901 9.018C19.4501 9.35533 19.9708 9.82467 20.3521 10.426C20.7335 11.0273 20.9241 11.724 20.9241 12.516C20.9241 13.0733 20.8141 13.6013 20.5941 14.1C20.3888 14.584 20.0808 15.0093 19.6701 15.376C19.2741 15.728 18.7828 15.9847 18.1961 16.146L18.2401 15.552C18.9441 15.728 19.5455 16.0213 20.0441 16.432C20.5575 16.828 20.9461 17.312 21.2101 17.884C21.4888 18.456 21.6281 19.0867 21.6281 19.776C21.6281 20.6267 21.4155 21.3893 20.9901 22.064C20.5648 22.7387 19.9635 23.2667 19.1861 23.648C18.4235 24.0293 17.5288 24.22 16.5021 24.22ZM16.5021 22.35C17.1181 22.35 17.6535 22.2327 18.1081 21.998C18.5775 21.7487 18.9441 21.4113 19.2081 20.986C19.4868 20.5607 19.6261 20.0693 19.6261 19.512C19.6261 18.9693 19.4868 18.4853 19.2081 18.06C18.9441 17.6347 18.5775 17.3047 18.1081 17.07C17.6535 16.8207 17.1181 16.696 16.5021 16.696C15.9008 16.696 15.3655 16.8207 14.8961 17.07C14.4268 17.3047 14.0528 17.6347 13.7741 18.06C13.5101 18.4853 13.3781 18.9693 13.3781 19.512C13.3781 20.0693 13.5101 20.5607 13.7741 20.986C14.0528 21.4113 14.4268 21.7487 14.8961 21.998C15.3655 22.2327 15.9008 22.35 16.5021 22.35ZM16.5021 15.09C17.2355 15.09 17.8368 14.8627 18.3061 14.408C18.7755 13.9533 19.0101 13.3667 19.0101 12.648C19.0101 11.944 18.7755 11.372 18.3061 10.932C17.8368 10.4773 17.2355 10.25 16.5021 10.25C15.7835 10.25 15.1895 10.4773 14.7201 10.932C14.2508 11.372 14.0161 11.944 14.0161 12.648C14.0161 13.3667 14.2508 13.9533 14.7201 14.408C15.1895 14.8627 15.7835 15.09 16.5021 15.09Z" fill="#070E2B"/>
</svg>
